<svg xmlns="http://www.w3.org/2000/svg" viewBox="0 0 240 240" fill="none" stroke="#F3E4D1" stroke-width="2" stroke-linecap="round" stroke-linejoin="round">
  <path d="M20 60 Q70 30 120 50 Q170 70 220 40" stroke="#6FCAA0" opacity="0.9"/>
  <path d="M20 80 Q70 55 120 75 Q170 95 220 65" stroke="#6FCAA0" opacity="0.65"/>
  <path d="M20 100 Q70 78 120 95 Q170 115 220 90" stroke="#8FB1E8" opacity="0.7"/>
  <path d="M20 120 Q70 100 120 115 Q170 132 220 110" stroke="#8FB1E8" opacity="0.5"/>
  <path d="M20 175 L40 175 L52 158 L62 192 L75 142 L88 198 L102 162 L115 175 L130 175 L145 175 L160 158 L172 188 L185 168 L200 175 L220 175"/>
  <g stroke="#F0C561" stroke-width="1.6" opacity="0.85">
    <circle cx="75" cy="142" r="3"/>
    <path d="M71 138 Q75 134 79 138"/>
  </g>
  <g stroke="#E85F5F" stroke-width="1.5" opacity="0.7">
    <circle cx="160" cy="158" r="2.5"/>
  </g>
  <g opacity="0.6">
    <path d="M40 30 L46 36 M46 30 L40 36"/>
    <path d="M180 25 L186 31 M186 25 L180 31"/>
    <path d="M210 200 L216 206"/>
  </g>
  <path d="M22 215 Q120 210 220 215" opacity="0.35" stroke-dasharray="1 4"/>
</svg>
