<svg xmlns="http://www.w3.org/2000/svg" viewBox="0 0 240 240" fill="none" stroke="#F3E4D1" stroke-width="2" stroke-linecap="round" stroke-linejoin="round">
  <path d="M70 70 Q60 50 75 35 Q80 55 95 75" />
  <path d="M170 70 Q180 48 165 32 Q158 54 145 75"/>
  <path d="M77 50 Q82 60 88 65"/>
  <path d="M163 50 Q158 60 152 65"/>
  <path d="M95 75 Q70 85 62 120 Q58 155 78 180 Q100 200 120 200 Q140 200 162 180 Q182 155 178 120 Q170 85 145 75"/>
  <path d="M120 200 Q118 215 115 222"/>
  <path d="M118 122 Q120 138 124 132"/>
  <path d="M104 124 L116 132"/>
  <path d="M136 124 L124 132"/>
  <path d="M93 110 Q98 102 105 108 Q102 117 95 116"/>
  <path d="M147 110 Q142 102 135 108 Q138 117 145 116"/>
  <path d="M88 100 Q72 92 60 102"/>
  <path d="M152 100 Q168 92 180 102"/>
  <path d="M108 90 Q120 84 132 90"/>
  <path d="M70 130 Q56 138 48 158"/>
  <path d="M170 130 Q184 138 192 158"/>
  <path d="M85 165 Q92 175 100 178"/>
  <path d="M155 165 Q148 175 140 178"/>
  <g stroke="#6FCAA0" stroke-width="1.5" opacity="0.85" stroke-dasharray="2 3">
    <path d="M105 65 Q120 50 135 65"/>
    <path d="M110 55 Q120 47 130 55"/>
  </g>
  <g stroke="#8FB1E8" stroke-width="1.4" opacity="0.7">
    <path d="M30 30 L42 36"/>
    <path d="M210 30 L198 36"/>
    <path d="M22 200 L34 196"/>
  </g>
</svg>
