<svg xmlns="http://www.w3.org/2000/svg" viewBox="0 0 240 240" fill="none" stroke="#F3E4D1" stroke-width="2" stroke-linecap="round" stroke-linejoin="round">
  <path d="M120 40 Q60 50 50 120 Q56 195 120 205 Q188 198 195 120 Q188 48 120 40"/>
  <path d="M50 118 Q120 110 195 122" opacity="0.55"/>
  <path d="M58 80 Q120 76 188 84" opacity="0.45" stroke-dasharray="2 4"/>
  <path d="M62 160 Q120 162 184 158" opacity="0.45" stroke-dasharray="2 4"/>
  <path d="M120 40 Q90 120 120 205" opacity="0.45"/>
  <path d="M120 40 Q150 120 120 205" opacity="0.35"/>
  <path d="M55 75 Q70 60 95 58 Q108 70 100 88 Q80 90 65 84 Z" opacity="0.85" stroke="#6FCAA0"/>
  <path d="M135 95 Q160 92 175 110 Q170 130 145 128 Q130 115 135 95 Z" opacity="0.85" stroke="#6FCAA0"/>
  <path d="M85 145 Q115 142 135 158 Q125 175 100 175 Q82 162 85 145 Z" opacity="0.85" stroke="#6FCAA0"/>
  <path d="M175 165 Q185 165 188 178 Q180 188 170 182 Z" opacity="0.7" stroke="#6FCAA0"/>
  <g stroke-width="1.5" opacity="0.7">
    <path d="M50 50 Q120 30 195 52" stroke-dasharray="1 3"/>
    <path d="M50 195 Q120 215 195 192" stroke-dasharray="1 3"/>
  </g>
  <g stroke="#F0C561" stroke-width="1.6">
    <path d="M210 30 L218 38"/>
    <path d="M214 26 L218 38 L222 26" stroke-linejoin="miter"/>
  </g>
  <path d="M22 145 L30 152 M30 145 L22 152" stroke="#8FB1E8" opacity="0.7"/>
</svg>
